<svg width="29" height="28" viewBox="0 0 29 28" fill="none" xmlns="http://www.w3.org/2000/svg">
<g clip-path="url(#clip0)">
<path d="M17.5389 10.3096L7.60461 2.8337L7.60324 2.83324L7.60095 2.83141L7.60049 2.83187C6.81427 2.23465 5.87338 1.94314 4.98419 1.94772C3.84239 1.95 2.77061 2.39025 1.95831 3.15724C1.14509 3.91829 0.600507 5.06284 0.605998 6.32179V21.2791C0.600507 22.5376 1.14555 23.6808 1.95877 24.4414C2.77153 25.2079 3.84239 25.6482 4.98465 25.6505C5.87566 25.6541 6.81473 25.3644 7.60049 24.77L17.5394 17.2904C18.6904 16.4236 19.2867 15.0942 19.2812 13.7991C19.2867 12.5049 18.6908 11.1727 17.5389 10.3096ZM15.2846 14.3016L5.34984 21.778L4.98465 21.907L4.53388 21.7235L4.35037 21.2791V6.32225L4.53434 5.87514L4.98419 5.69163L5.34572 5.82068L5.34938 5.82297L15.2874 13.3012L15.5363 13.7991L15.2846 14.3016Z" fill="white"/>
<path d="M26.3546 0.695007C25.3203 0.695007 24.4824 1.53294 24.4824 2.56719V25.0329C24.4824 26.0667 25.3203 26.9051 26.3546 26.9051C27.3884 26.9051 28.2268 26.0667 28.2268 25.0329V2.56719C28.2268 1.53294 27.3884 0.695007 26.3546 0.695007Z" fill="white"/>
</g>
<defs>
<clipPath id="clip0">
<rect width="28.5193" height="27.1928" fill="white" transform="translate(0.156738 0.203094)"/>
</clipPath>
</defs>
</svg>
