<svg width="29" height="28" viewBox="0 0 29 28" fill="none" xmlns="http://www.w3.org/2000/svg">
<path d="M11.1373 17.4556L21.0717 24.9316L21.073 24.932L21.0753 24.9338L21.0758 24.9334C21.862 25.5306 22.8029 25.8221 23.6921 25.8175C24.8339 25.8153 25.9057 25.375 26.718 24.608C27.5312 23.847 28.0758 22.7024 28.0703 21.4435L28.0703 6.48613C28.0758 5.22763 27.5307 4.08446 26.7175 3.32387C25.9047 2.55733 24.8339 2.11709 23.6916 2.1148C22.8006 2.11114 21.8615 2.40082 21.0758 2.99529L11.1369 10.4749C9.98591 11.3416 9.38961 12.6711 9.3951 13.9662C9.38961 15.2604 9.98545 16.5925 11.1373 17.4556ZM13.3916 13.4637L23.3264 5.9873L23.6916 5.85825L24.1424 6.04176L24.3259 6.48613L24.3259 21.443L24.1419 21.8901L23.6921 22.0736L23.3305 21.9446L23.3269 21.9423L13.3889 14.4641L13.1399 13.9662L13.3916 13.4637Z" fill="white"/>
<path d="M2.32166 27.0703C3.35592 27.0703 4.19385 26.2323 4.19385 25.1981L4.19385 2.73231C4.19385 1.69851 3.35592 0.860123 2.32167 0.860123C1.28787 0.860122 0.449481 1.69851 0.449481 2.73231L0.449479 25.1981C0.449479 26.2323 1.28787 27.0703 2.32166 27.0703Z" fill="white"/>
</svg>
