<svg width="28" height="29" viewBox="0 0 28 29" fill="none" xmlns="http://www.w3.org/2000/svg">
<g clip-path="url(#clip0)">
<path d="M26.566 3.75267L24.498 1.68462C23.9726 1.18554 23.2756 0.907269 22.5509 0.907269C21.8263 0.907269 21.1293 1.18554 20.6039 1.68462L10.7697 11.5188C10.6177 11.6726 10.5144 11.8677 10.4727 12.0798L9.37264 17.58C9.33535 17.7584 9.34296 17.9432 9.39481 18.118C9.44665 18.2927 9.54109 18.4518 9.66965 18.581C9.77243 18.6829 9.89434 18.7636 10.0284 18.8183C10.1624 18.8731 10.3059 18.9008 10.4507 18.9H10.6707L16.1708 17.8C16.3829 17.7582 16.578 17.6549 16.7318 17.503L26.566 7.66875C27.0806 7.15139 27.3694 6.45138 27.3694 5.72171C27.3694 4.99204 27.0806 4.29203 26.566 3.77467V3.75267ZM15.4118 15.6879L11.8477 16.4029L12.5627 12.8389L19.2509 6.15072L22.0999 8.99978L15.4118 15.6879ZM25.004 6.08472L23.651 7.44875L20.8019 4.59969L22.1659 3.24666C22.2153 3.19404 22.2749 3.15211 22.3412 3.12344C22.4074 3.09477 22.4788 3.07998 22.5509 3.07998C22.6231 3.07998 22.6945 3.09477 22.7607 3.12344C22.8269 3.15211 22.8866 3.19404 22.9359 3.24666L25.004 5.3147C25.0566 5.36408 25.0985 5.42372 25.1272 5.48994C25.1559 5.55616 25.1707 5.62755 25.1707 5.69971C25.1707 5.77187 25.1559 5.84326 25.1272 5.90948C25.0985 5.9757 25.0566 6.03534 25.004 6.08472V6.08472Z" fill="black"/>
<path d="M20.9005 27.6998H4.40013C3.37903 27.6998 2.39974 27.2942 1.67771 26.5721C0.955682 25.8501 0.550049 24.8708 0.550049 23.8497V7.34935C0.550049 6.32825 0.955682 5.34897 1.67771 4.62693C2.39974 3.9049 3.37903 3.49927 4.40013 3.49927H11.5503C11.842 3.49927 12.1218 3.61517 12.3281 3.82146C12.5344 4.02776 12.6503 4.30755 12.6503 4.5993C12.6503 4.89104 12.5344 5.17083 12.3281 5.37713C12.1218 5.58342 11.842 5.69932 11.5503 5.69932H4.40013C3.96252 5.69932 3.54282 5.87316 3.23338 6.1826C2.92394 6.49204 2.7501 6.91174 2.7501 7.34935V23.8497C2.7501 24.2873 2.92394 24.707 3.23338 25.0165C3.54282 25.3259 3.96252 25.4997 4.40013 25.4997H20.9005C21.3381 25.4997 21.7578 25.3259 22.0672 25.0165C22.3767 24.707 22.5505 24.2873 22.5505 23.8497V16.6996C22.5505 16.4078 22.6664 16.128 22.8727 15.9217C23.079 15.7154 23.3588 15.5995 23.6505 15.5995C23.9423 15.5995 24.2221 15.7154 24.4284 15.9217C24.6347 16.128 24.7506 16.4078 24.7506 16.6996V23.8497C24.7506 24.8708 24.3449 25.8501 23.6229 26.5721C22.9009 27.2942 21.9216 27.6998 20.9005 27.6998Z" fill="black"/>
</g>
<defs>
<clipPath id="clip0">
<rect width="27.5" height="27.5" fill="white" transform="translate(0 0.75)"/>
</clipPath>
</defs>
</svg>
