<svg width="51" height="50" viewBox="0 0 51 50" fill="none" xmlns="http://www.w3.org/2000/svg">
<g clip-path="url(#clip0)">
<path d="M13.8111 0.82489C11.8225 0.871418 9.69678 1.32264 7.5163 2.38284C4.14942 4.0197 2.24199 7.40653 1.82747 11.087C1.4129 14.7674 2.29197 18.8723 4.27996 22.9022C6.92147 28.257 11.8273 34.4451 16.1145 39.4589C20.4017 44.4728 24.0731 48.2591 24.0731 48.2591C24.3007 48.4903 24.5717 48.6742 24.8706 48.8004C25.1695 48.9265 25.4904 48.9923 25.8148 48.994C26.1393 48.9958 26.4608 48.9335 26.7611 48.8106C27.0613 48.6876 27.3343 48.5066 27.5643 48.2778C27.5643 48.2778 31.3123 44.5935 35.6912 39.6268C40.0702 34.66 45.0934 28.483 47.8287 23.0363C49.9677 18.7772 50.6923 14.5509 50.0648 10.8746C49.4374 7.1983 47.3501 4.01856 44.1403 2.42544C38.4171 -0.415209 33.0199 1.06007 29.4927 3.18595C27.21 4.56142 26.7599 5.38345 25.8572 6.38846C24.9663 5.37535 24.53 4.55503 22.2554 3.17147C20.4964 2.1016 18.2688 1.19736 15.749 0.91605C15.1191 0.841604 14.4739 0.814593 13.8111 0.832274V0.82489ZM14.0083 5.67708C16.2084 5.62124 18.0728 6.39168 19.6971 7.37929C22.296 8.96004 23.8568 11.0532 23.8568 11.0532C24.0846 11.3608 24.381 11.6109 24.7225 11.7839C25.0639 11.9569 25.441 12.0479 25.8237 12.0497C26.2065 12.0515 26.5844 11.9642 26.9275 11.7944C27.2705 11.6247 27.5693 11.3774 27.8 11.072C27.8 11.072 29.4147 8.97785 32.0366 7.39803C34.6584 5.81812 37.8569 4.80002 41.9572 6.83489C43.6353 7.66774 44.798 9.27603 45.2128 11.7064C45.6276 14.1366 45.1793 17.3373 43.4335 20.8144C41.1346 25.3921 36.2585 31.5193 31.9981 36.3515C28.6865 40.1077 27.0185 41.7583 25.8765 42.9108C24.7535 41.7356 23.1058 40.0555 19.8606 36.2604C15.6843 31.3763 10.9161 25.2167 8.69932 20.7229C7.05258 17.3847 6.44017 14.121 6.7181 11.6536C6.99595 9.18626 7.9544 7.64555 9.6611 6.81586C11.2443 6.04628 12.6882 5.71159 14.0083 5.67622V5.67708Z" fill="white"/>
</g>
<defs>
<clipPath id="clip0">
<rect width="50" height="48.8636" fill="white" transform="translate(0.837891 0.367676)"/>
</clipPath>
</defs>
</svg>
