<svg width="50" height="51" viewBox="0 0 50 51" fill="none" xmlns="http://www.w3.org/2000/svg">
<path d="M24.5454 1.25357C23.4805 1.25357 22.4593 1.67659 21.7063 2.42958C20.9533 3.18257 20.5303 4.20384 20.5303 5.26872V45.4202C20.5303 46.4851 20.9533 47.5064 21.7063 48.2594C22.4593 49.0124 23.4805 49.4354 24.5454 49.4354C25.6103 49.4354 26.6316 49.0124 27.3846 48.2594C28.1376 47.5064 28.5606 46.4851 28.5606 45.4202V5.26872C28.5606 4.20384 28.1376 3.18257 27.3846 2.42958C26.6316 1.67659 25.6103 1.25357 24.5454 1.25357Z" fill="white"/>
<path d="M4.46974 21.3294C3.40486 21.3294 2.38359 21.7524 1.6306 22.5054C0.877613 23.2584 0.45459 24.2796 0.45459 25.3445C0.45459 26.4094 0.877613 27.4307 1.6306 28.1837C2.38359 28.9367 3.40486 29.3597 4.46974 29.3597H44.6213C45.6861 29.3597 46.7074 28.9367 47.4604 28.1837C48.2134 27.4307 48.6364 26.4094 48.6364 25.3445C48.6364 24.2796 48.2134 23.2584 47.4604 22.5054C46.7074 21.7524 45.6861 21.3294 44.6213 21.3294H4.46974Z" fill="white"/>
</svg>
